<svg version="1.1" id="svg2" xmlns:dc="http://purl.org/dc/elements/1.1/" xmlns:svg="http://www.w3.org/2000/svg" xmlns:rdf="http://www.w3.org/1999/02/22-rdf-syntax-ns#" xmlns:cc="http://creativecommons.org/ns#" xmlns="http://www.w3.org/2000/svg" xmlns:xlink="http://www.w3.org/1999/xlink" x="0px" y="0px" width="36px" height="32px" viewBox="69.887 61.407 36 32" enable-background="new 69.887 61.407 36 32" xml:space="preserve">
  <g fill="#909BC6">
    <path d="M84.045 68.103a.098.098 0 0 0-.015-.02c-1.301-1.178-2.783-2.298-4.637-3.502 1.243 1.17 2.614 2.299 4.276 3.522h.376"/>
    <path d="M104.469 75.193l-.011.028c-.144.284-.291.579-.484.87l-.308.462.175-.526c.071-.214.13-.427.19-.649v-.397c0-.084.028-.164.08-.232.16-.444.328-.921.457-1.438l.146.023c-.048.623-.097 1.266-.245 1.86zm-.543 2.11c-.092.154-.166.313-.245.48-.044.093-.09.19-.141.294l-.137-.058c.025-.074.062-.16.099-.246.034-.08.068-.16.093-.23.007-.123.113-.229.216-.33l.422-.422-.307.512zm-.644-1.588c-.03.091-.056.177-.076.256-.276.623-.524 1.235-.765 1.828-.088.221-.177.44-.266.656h.214l-.224.223c-.084.128-.18.273-.277.467-.447.597-.99 1.14-1.515 1.666l-.005.004.038.012-.088.087c-.1.1-.211.2-.32.297a6.881 6.881 0 0 0-.311.286l-.022.022h-.031c-.107 0-.218.03-.328.065a.042.042 0 0 1 .004.011.11.11 0 0 1 .007.019h.158l-.128.127a1.56 1.56 0 0 1-.35.25.904.904 0 0 1-.1.075c-.032.021-.064.042-.085.063l-.142.141c.02.02.016.019.037-.003l.016-.016.022-.004c.144-.029.309-.094.483-.164.11-.044.222-.088.335-.126l.435-.146-.368.276a4.96 4.96 0 0 0-.291.242c-.095.084-.193.17-.292.245a7.878 7.878 0 0 1-.96.463c-.214.091-.416.177-.606.273l-.078-.126c.19-.144.384-.3.572-.453.194-.158.396-.321.594-.47l.01-.008-.118.08c-.222.147-.446.285-.663.418l-.153.092.028.058-.062-.037c-.154.095-.31.192-.463.295l-.039.025-.04-.023a93.75 93.75 0 0 1-12.236-8.494c-.09.003-.12.024-.124.032 0 0-.017.058.155.23.558.46 1.11.926 1.66 1.392.543.458 1.085.915 1.639 1.373l-.088.12a13.552 13.552 0 0 1-.88-.637 107.494 107.494 0 0 1-11.273-8.813 57.463 57.463 0 0 0 4.854 4.519 126.986 126.986 0 0 0 12.076 8.92 42.879 42.879 0 0 0-2.452-2.246l.094-.115c1.769 1.365 3.684 2.596 5.34 3.642l.16.101-.187.034c-.526.096-1.016.291-1.49.48l-.101.042-.002-.126c-.095-.088-.167-.105-.29-.133l-.091-.021-.057-.015v-.11a17.187 17.187 0 0 0-3.573 2.153l-.047.037-.046-.04c-.275-.228-.629-.53-.929-.83l-.323-.322.409.204c.29.144.535.338.77.526.035 0 .062 0 .088-.006a52.991 52.991 0 0 0-1.527-1.617l-.325-.325.41.206c.277.14.514.278.815.477.052-.004.094-.025.102-.038v-.03l.018-.006a.082.082 0 0 0 .026-.058 51.078 51.078 0 0 0-1.587-1.236c-.317-.24-.638-.484-.958-.733-.133-.15-.248-.29-.362-.426a9.996 9.996 0 0 0-.618-.698c-.574-.67-1.164-1.358-1.8-2.043l.099-.11c1.953 1.445 4.566 3.323 7.46 5.04l.065-.001a488.211 488.211 0 0 0-6.912-5.15l-1.138-.84c-.269-.218-.552-.427-.825-.63a21.659 21.659 0 0 1-.831-.635c-1.85-2.016-3.932-4.135-6.364-6.474l.433.49c.889 1.009 1.808 2.052 2.775 3.057.1.147.243.29.381.429l.002.002-.094.115a33.639 33.639 0 0 1-2.387-2.143 26.342 26.342 0 0 1-1.102-1.34h-.132v.154l-.127-.127c-.91-.91-1.85-1.85-2.677-2.823l-.04-.046.038-.048c.056-.07.115-.138.179-.208-.078.055-.151.11-.22.166l-.051.041-.048-.046a.401.401 0 0 0-.047-.039c-.034-.027-.077-.06-.115-.104l.016.038c.023.058.047.118.07.165l.026.05-.042.038c-.67.62-1.128 1.2-1.441 1.825l-.186.373.045-.414c.025-.217.037-.45.049-.676.012-.228.024-.464.049-.685 0-.091 0-.204.055-.317.721-1.133 1.71-2.09 2.944-2.848.696-.392 1.378-.82 2.087-1.31a.714.714 0 0 1 .196-.06.627.627 0 0 0 .153-.043c.684-.197 1.378-.395 2.069-.445.154-.001.354 0 .558.05l.31.079-.313.066c-.804.172-1.5.378-2.126.628-1.144.43-1.997 1.095-2.471 1.927.026-.03.05-.062.075-.095.037-.05.076-.102.13-.155l.126-.126v.252l-.015.02c-.075.1-.074.157-.067.171.005.01.029.01.036.01.01 0 .02 0 .032-.003 1.111-1.105 2.387-1.71 4.013-1.9l.03.145c-.67.191-1.25.48-1.725.86l-.02.017h-.026c-.007 0-.03 0-.071-.013v.12l-.027.022c-.193.16-.365.344-.531.521-.082.087-.162.172-.242.252l-.038.037-.027-.013.015.015.046.046-.038.052c-.144.193-.28.374-.373.603-.002.061-.016.08-.07.135l-.043.042-.051-.033c-.32-.214-.62-.43-.882-.621l-.287-.207-.07-.05.023-.024-.035-.014a1.55 1.55 0 0 1-.518-.318c-.052.037-.055.066-.056.077-.017.174.484.567.648.697.17.145.365.28.555.41.193.132.392.27.565.418l.026.022v.034c0 .037.007.062.04.089a.154.154 0 0 1 .08-.017h.025l.02.015c4.11 3.04 7.457 5.646 10.529 8.198.135 0 .31-.002.436-.044.048-.026.128-.039.206-.052l.037-.006c-.123-.09-.24-.18-.356-.27-.16-.123-.319-.245-.49-.368a138.733 138.733 0 0 0-10.206-7.824l-.053-.037.03-.058c.097-.195.242-.391.445-.644l.053-.067.059.062c2.687 2.883 5.754 5.273 9.373 7.304a.18.18 0 0 0 .048-.053.355.355 0 0 1 .047-.06c-.003.003-.032-.024-.049-.04-.1-.1-.135-.121-.148-.125h-.025l-.014-.014c-3.28-2.46-6.3-4.766-9.235-7.048l-.051-.04.033-.057c.138-.228.323-.43.6-.652l.084-.067.033.102c.095.284.457.582.85.888.203.16.404.316.605.472.733.57 1.426 1.11 2.074 1.72 1.523 1.388 3.198 2.44 4.985 3.13-.974-.755-1.955-1.51-2.933-2.263a553.688 553.688 0 0 1-5.356-4.157l-.076-.06.077-.057c.365-.274.813-.582 1.38-.79l.044-.015.013.013c.45-.18.949-.32 1.483-.415a1.267 1.267 0 0 0-.117-.025 1.445 1.445 0 0 1-.206-.049l-.115-.038.086-.085a.73.73 0 0 1 .108-.08c.032-.022.065-.043.086-.065l.022-.021h.03c.414 0 .839 0 1.26-.024-.323-.023-.628-.023-.967-.023l-.009-.148c.38-.042.717-.048 1.085-.018a.648.648 0 0 1-.06-.05l-.217-.216.234.042c.382.07.737.138 1.087.242l-.097-.049h.31c.036 0 .074.017.117.053 2.601 1.35 3.911 3.518 3.989 6.62.048-.024.087-.052.143-.09.024-.017.051-.037.083-.058l.407-.41v.18c0 .09.024.169.054.244.02-.138.03-.269.042-.396a5.43 5.43 0 0 1 .048-.443l.074-.44.073.44c.043.259.086.516.128.737l.047-.014c.025-.007.048-.013.066-.021v-.09c-.205-.418-.236-.825-.092-1.209a7.341 7.341 0 0 1 1.518-3.083l.022-.018c1.62-.905 3.348-1.37 5.283-1.419.2-.001.448 0 .651.05l.02.009c.38.217.762.4 1.106.53l.026.017.048.049c2.476 1.955 4.433 3.36 6.336 4.546a.81.81 0 0 0 .256-.063l.07-.024c.012-.016.015-.031.016-.054l-.03-.038c-.035-.046-.07-.092-.123-.118-.863-.616-1.726-1.226-2.593-1.84a488.022 488.022 0 0 1-3.62-2.575h-.169c.002 0-.02.002-.045.027l-.031.033-.044-.015a2.597 2.597 0 0 1-.425-.2c-.135-.073-.262-.143-.402-.19l-.435-.144h.458c.31 0 .663.053.937.098 1.08.141 1.835.64 2.302 1.526l.048-.031c.036-.025.074-.049.12-.073.028-.028.066-.068.067-.085 0-.03 0-.115-.027-.142l-.018-.03c-.024-.071-.048-.131-.072-.193a4.055 4.055 0 0 1-.074-.195l-.088-.264.208.185c1.188 1.056 2.503 1.992 4.022 2.859l.021.012.01.023c.09.213.163.459.238.72.047.163.097.332.154.5l.174.523-.248-.37c.032.098.06.197.076.297.11.663.142 1.289.097 1.913l-.002.027-.02.02a1.03 1.03 0 0 0-.129.221l-.042.082-.072-.055c-2.754-2.222-5.406-4.676-7.97-7.05-.053.05-.103.089-.153.126-.037.028-.075.055-.11.088.008.02.022.042.032.048h.032l.008.02a54.01 54.01 0 0 0 7.607 6.836c.179.043.313.043.454.043h.075v.074c0 .054 0 .128-.07.198a.071.071 0 0 0-.02.029.091.091 0 0 1 .017-.006c.034-.01.067-.022.11-.044l.034-.008c0-.004.023-.037.04-.057a.61.61 0 0 1 .033-.044c.007-.059.033-.086.092-.092.017-.013.032-.023.044-.03.006-.004.013-.007.017-.011a.03.03 0 0 0-.008.017h.148c0 .298-.05.597-.099.887a5.82 5.82 0 0 1-.107.575c-.033.15-.064.29-.086.444l-.021.145-.105-.103a146.303 146.303 0 0 0-8.585-7.81l-.047-.011.001.001c2.553 2.64 5.281 5.307 8.588 8.393l.03.028-.008.039a6.487 6.487 0 0 1-.246.934l-.033.102-.083-.067a269.947 269.947 0 0 1-10.52-8.967.09.09 0 0 0-.025.02l-.021.02h-.031a.31.31 0 0 0-.141.075l-.026.022c.006.05.035.078.073.116 3.043 3.188 6.521 6.145 10.341 8.79.085.04.171.084.3.084h.09l-.018.089c-.03.147-.078.295-.119.427zm-.397 2.988c-.273.498-.569.898-.883 1.322l-.218.297a1.311 1.311 0 0 1-.214.164c-.037.025-.075.05-.109.075-.035.054-.079.083-.126.083h-.18l.127-.127a.769.769 0 0 1 .065-.055.109.109 0 0 0 .012-.039v-.03l.022-.021c.061-.063.122-.105.17-.14.025-.017.048-.032.064-.048.047-.093.094-.175.14-.257.05-.084.098-.168.145-.265.083-.111.171-.226.26-.338l.235-.305c.029-.03.057-.056.088-.086a1.37 1.37 0 0 0 .274-.305l.02-.037.131.069a.795.795 0 0 1-.023.043zm-6.417 4.844c-.075.05-.16.099-.245.148-.084.048-.17.096-.24.144l-.018.01a7.277 7.277 0 0 0-.914.384l-.108.054v-.12c0-.079.026-.114.09-.122.125-.122.247-.217.365-.311.106-.084.206-.163.295-.252.121-.081.226-.105.328-.128.046-.01.093-.02.14-.036l.03-.01.027.014c.045.023.079.034.112.046.04.013.078.026.13.052l.114.056-.106.071zm-10.786-2.244l.094-.114c.148.099.285.198.42.297.132.096.263.19.406.286l.016.015c.22.268.426.511.633.756.206.242.413.484.63.75l-.107.102a28.59 28.59 0 0 1-1.705-1.706l-.387-.386zm-6.468-7.052l.11-.1c.483.483 1.02.932 1.538 1.366.266.223.53.444.79.672.515.586 1.042 1.175 1.553 1.745.517.577 1.051 1.174 1.565 1.76l.369.423-.466-.312a7.835 7.835 0 0 1-.24-.168c-.086-.06-.172-.122-.246-.17-.294-.253-.652-.53-1.071-.83-.33-.365-.65-.716-.968-1.066-.971-1.071-1.976-2.178-2.934-3.32zm11.929 11.962l.008.01-.077.046c-.434.338-.876.78-1.302 1.206l-.025.017a1.77 1.77 0 0 0-.606.42l-.05.05-.053-.046c-.19-.171-.38-.342-.567-.514l-.19.158.113-.228a181.047 181.047 0 0 1-3.44-3.258l-.388-.373.474.255c.365.195.714.423 1.051.645.252.165.49.321.733.463.026 0 .053 0 .079-.002a16.255 16.255 0 0 0-2.518-1.804c-.2-.15-.393-.294-.579-.385l-.02-.016a63.874 63.874 0 0 0-2.574-2.573l.102-.109v.001a35.89 35.89 0 0 0 6.68 4.94 40.472 40.472 0 0 1-1.92-1.623c-3.254-2.958-6.938-6.103-11.592-9.896h-.053l-.457-.456a.153.153 0 0 0-.04.094c-.009.16.227.417.483.673a54.837 54.837 0 0 1 4.037 4.183c.72.865 1.453 1.647 2.161 2.403l.024.025-.098.11c-3.033-2.261-5.681-4.527-8.09-6.922.017.253.078.53.275.846l.012.018v.021c0 .452.37 1.02 1.043 1.596 2.475 2.329 4.94 4.794 7.323 7.177l.377.377-.445-.24c-.59-.318-1.258-.61-1.982-.87l-.025-.015a100.984 100.984 0 0 1-6.388-6.384l-.013.004c.88 1.477 2.053 2.94 3.587 4.474l-.101.11c-1.344-1.184-2.553-2.418-3.455-3.36-.048-.069-.08-.128-.11-.185-.035-.065-.066-.122-.103-.169v.084l-.14-.282a11.245 11.245 0 0 0-.387-.675c-.08-.235-.14-.443-.202-.65-.056-.19-.111-.38-.177-.578h-.054l-.013-.058c-.266-1.2-.39-2.502-.39-4.099l.002-.02c.299-1.094.844-2.12 1.667-3.136l.078-.097.048.115c.207.497.561.925.936 1.379l.17.206c1.02 1.126 2.148 2.115 2.907 2.76l.021.024c.761.904 1.548 1.838 2.37 2.854.242.34.585.73.916 1.11l-.098.111a110.867 110.867 0 0 1-7.467-6.835h-.007c.303.423.496.87.545 1.25l.008.008a208.991 208.991 0 0 0 3.47 3.132 113.55 113.55 0 0 0 5.78 4.954 84.59 84.59 0 0 0 7.293 7.147l.15.13h-.199a.711.711 0 0 0-.142.125l-.019.013c-.135.068-.248.19-.356.308l-.11.116c-.08.054-.151.126-.22.196-.037.035-.073.072-.11.105a.22.22 0 0 1 .037.031l.053.052-.053.053a.413.413 0 0 0-.053.074c.203-.174.407-.338.688-.48a.348.348 0 0 1 .141-.063c.035-.01.073-.02.11-.039l.108-.053v.063c.115-.077.233-.16.31-.239l.054-.052.128.128c.202 0 .46-.004.666-.09l-.075-.06a2.796 2.796 0 0 1-.237-.209l-.071-.071.089-.048c.907-.478 1.845-.97 2.823-1.411l.07.13c-.753.46-1.482.984-2.36 1.693zm-2.343 2.04c-.166.165-.31.356-.448.54-.06.08-.12.158-.178.23l-.055.07-.059-.066a24.572 24.572 0 0 0-5.718-4.846 547.203 547.203 0 0 1-2.195-2.252 425.2 425.2 0 0 0-4.38-4.466l.1-.11c1.85 1.489 3.852 2.983 6.12 4.565 2.483 2.482 4.643 4.457 6.808 6.225l.063.052-.058.057zm-.804 1.162c0 .073-.012.091-.07.15l-.014.014c-.227.227-.463.463-.694.738v.022l-.148.005c-.046-.643-.323-1.318-.76-1.854l-.018-.02v-.027c0-.036-.03-.064-.077-.102-.017-.014-.033-.026-.047-.04l-.22-.222.16.054a2.963 2.963 0 0 0-.115-.061l-.022-.011-.011-.022c-.019-.038-.036-.054-.053-.07-.022-.023-.052-.054-.052-.11v-.13l.112.067c.097.059.21.117.33.179.176.09.358.184.529.297h.106l.04.04c.33.33.67.67 1.005 1.055l.019.02v.028zm-.342 1.086c-.1.448-.144.877-.144 1.393v.179l-.127-.126c-.151-.153-.251-.252-.305-.36a.83.83 0 0 0-.075-.115.372.372 0 0 1-.078-.144c-.17-.467-.396-.985-.674-1.539l.13-.072c.145.241.302.494.458.746l.328.533v-.033c-.032-.036-.048-.1-.048-.187v-.074h.092c.047-.044.102-.088.155-.13.058-.047.116-.093.163-.14l.18-.179-.055.248zm-1.686-.409a24.646 24.646 0 0 0-2.859-3.053l-.402-.364.485.243c.152.077.337.154.524.229v-.088l1 .5.011.017c.095.142.2.259.31.382.11.12.222.246.322.396l.077.115h-.063c.238.447.463.931.722 1.55l.21.506-.337-.433zm-3.434-5.038c-.146-.097-.28-.195-.415-.293l-.19-.137a3.811 3.811 0 0 1-.224-.155l.085-.12c.078.05.152.102.224.154.13.084.274.166.4.229l.02.014.194.194-.094.114zm-4.38-1.511l.009-.018-.014.014-.004-.004a.265.265 0 0 0-.064-.027c-.042-.014-.09-.03-.126-.067-.532-.386-.978-.831-1.41-1.263l.105-.105c.014.014.05.023.087.034.041.01.088.024.137.049l.02.014c.026.027.11.027.141.027h.046l.02.041a.58.58 0 0 0 .218.264c.108.105.204.207.303.31.194.205.396.417.616.608l.012.01.004.003-.1.11zm-2.008-1.88c-.062-.012-.126-.025-.203-.05l-.019-.006-.013-.015c-.154-.17-.304-.329-.45-.486-.315-.338-.613-.657-.913-1.023l.11-.1c.144.144.29.28.433.41.144.132.294.269.441.416.286.238.583.484.875.777l.221.222-.297-.099a1.453 1.453 0 0 0-.185-.045zm-3.537-2.693c-.04-.039-.062-.061-.068-.105l-.037-.05c-.038-.05-.077-.102-.104-.155l-.007-.034v-.366l.14.283c.02.04.049.08.074.116.043.06.077.107.08.156.015.023.029.046.04.07l.204.406-.322-.32zm3.486-15.725l.046.14c-.144.062-.289.116-.43.167-.192.07-.373.137-.538.22a.726.726 0 0 0-.37.23l-.014.012-.018.006c-.344.098-.59.252-.854.428l-.084-.122c.77-.55 1.51-.904 2.262-1.081zm1.475-.72c.846-.148 1.514-.196 2.143-.157l-.005.148c-.23 0-.466.046-.695.092-.071.054-.176.054-.277.054h-.875c-.09 0-.175 0-.272.01l-.2.037-.032-.144c.072-.018.142-.03.213-.04zm2.43.328c.29 0 .589 0 .887.05l-.012.148h-.858l-.196-.197H80zm7.848 4.4c0-.479.182-.893.555-1.267l.364-.363-.247.451a4.292 4.292 0 0 0-.525 1.672l-.148-.006v-.487zm4.521-3.958c.463-.154.942-.285 1.56-.424l-.264-.04-.458-.073-.296-.049.284-.094.085-.03a.908.908 0 0 1 .317-.071 8.724 8.724 0 0 1 1.46-.292h.011l.012.001c.55.11 1.073.14 1.682.096h.002c.61 0 1.08.063 1.484.199 2.541.928 4.257 2.43 5.1 4.464l.128.31-.247-.227c-1.246-1.141-2.55-2.055-3.666-2.8h-.124c-.03 0-.114 0-.141.028l-.027.021v.072h-.149a2.29 2.29 0 0 0-.152-.079c-1.484-.927-3.208-1.218-5.106-.868h-1.927l.432-.144zm12.443 12.203c.271-.86.576-1.862.776-2.913.727-3.195.127-5.805-1.778-7.758-.197-.292-.438-.534-.671-.768a.083.083 0 0 0-.028-.008c.003 0 .017-.007.025-.024s.003-.03 0-.035l-.067.077c.23.219.448.454.657.707.76.965 1.287 2.17 1.522 3.485.183.912.248 1.916.195 2.982h-.148c-.09-1.463-.398-2.906-.937-4.4-.01.453.043.997.16 1.71.097.578.196 1.171.245 1.805l-.146.024a1.697 1.697 0 0 0-.072-.209c-.039-.1-.076-.195-.076-.295-.048-.469-.097-.958-.24-1.436a7.947 7.947 0 0 0-1.205-3.14l.12-.086c.318.41.648.834.975 1.296l.053-.018.049-.016-.008-.02.034-.034a.088.088 0 0 0 .025-.038c-.141-.369-.331-.654-.515-.931-.813-1.12-1.736-2.002-2.783-2.653l-.277-.145.054.01c-1.703-.99-3.732-1.395-6.106-1.22-.863.323-1.62.67-2.313 1.06a4.752 4.752 0 0 0-1.054.814l-.016.012c-.557.304-.998.711-1.393 1.106l-.016.012a4.8 4.8 0 0 0-1.437 1.197c-.314.359-.515.73-.617 1.137l-.068.271-.075-.268c-.446-1.585-1.431-2.855-3.013-3.883h-.193l-.018-.011c-1.289-.81-2.811-1.155-4.671-1.058-1.689.17-2.993.507-4.102 1.062l-.02.006c-1.662.285-2.972 1.196-3.788 2.637-.35.499-.58 1.026-.672 1.531l-.007.02c-.04.081-.04.165-.04.21v.02l-.011.019c-.513.838-.86 1.83-1.06 3.035-.45 2.43-.027 4.544 1.256 6.295l-.03-.046a2.04 2.04 0 0 1-.126-.225 1.749 1.749 0 0 0-.117-.211c-.674-1.54-.94-3.094-.839-4.906.056-.662.168-1.24.344-1.769l.144.033c-.048.386-.096.775-.096 1.109 0 .427 0 .87.048 1.353-.047.395 0 .826.046 1.242a.16.16 0 0 1 .003.029l-.148.008-.003-.021a.394.394 0 0 0-.028-.076c.042.273.107.529.175.798l.05.196c.047.115.085.24.12.36.036.119.073.241.12.36.055.199.1.396.147.594.082.354.168.72.291 1.06l.212.581-.05-.073c.038.15.097.262.164.389l.06.116-.126.078a4.277 4.277 0 0 0-.077-.1c.066.122.135.242.206.365.062.109.126.22.19.335l.075.144c.062.114.12.225.16.352h.13l.023.036c.083.14.185.282.292.431.078.109.159.222.24.344l.01.018.04.124c.081.25.174.535.33.815.202.103.459.257.666.382l.018.015a18.388 18.388 0 0 0 3.252 3.021l.088-.117c1 .714 2.034 1.452 3.107 2.135l-.073.13a.381.381 0 0 0-.119-.033l.095.095c.13.04.27.04.495.04h.02l.018.01.419.255c.369.225.75.458 1.133.668 1.487 1.16 2.781 2.6 3.857 4.285.05.03.087.067.121.1a.431.431 0 0 0 .103.085l.019.013c.05.05.1.095.147.137.094.083.182.161.25.264l.01.014h.024l.02.041c.052.104.105.211.105.326v.195c0 .094.012.253.09.253a.208.208 0 0 0 .095-.028l.047-.024.038.037a.25.25 0 0 1 .063.106c.117.074.26.147.38.194.114-.262.156-.605.112-.917-.11-.93.042-1.7.45-2.288l.05-.073.063.063c.107.108.215.241.321.38a1.292 1.292 0 0 0-.194-.58l-.011-.019v-.02c0-.073.012-.09.07-.15 1.226-1.352 2.649-2.352 4.237-2.977-.078.015-.156.03-.237.04l-.085.013v-.086c0-.066.063-.12.186-.163l.332-.238.603-.304c.769-.388 1.495-.754 2.23-1.064l.031-.014.031.016c.172.086.453.085.72-.004.71-.332 1.446-.676 2.072-1.11.751-.429 1.35-.865 1.787-1.302l.017-.013.5-.268c.339-.18.66-.35.98-.541.109-.373.258-.678.457-.929a.526.526 0 0 1-.03-.212c-.023-.031-.035-.067-.046-.1-.01-.028-.02-.056-.03-.068l-.038-.037.024-.048c.05-.101.101-.206.16-.262.9-1.234 1.58-2.483 2.072-3.813.018-.054.044-.118.071-.187.043-.105.092-.225.122-.34"/>
    <path d="M97.51 80.528l.087.087c.358.313.591.62.651.86l.064.261-.19-.19a.953.953 0 0 0-.222-.18 54.647 54.647 0 0 1-9.813-7.04h-.068c-.098 0-.117.002-.142.027l-.019.018c.924.878 1.88 1.784 2.882 2.644l-.094.114c-1.561-1.209-3.18-2.314-4.57-3.241.402.48.9.941 1.466 1.467.155.144.315.292.479.447 1.018.92 2.14 1.8 3.202 2.62 2.135 1.65 4.22 2.967 5.875 3.961-1.097-.994-2.21-1.92-3.287-2.82l-.003-.002.086-.121a71.252 71.252 0 0 0 4.029 2.622c.249.098.42.135.496.135h.196l.078-.154a.444.444 0 0 0 .042-.197c-.047-.138-.091-.266-.173-.348-.316-.454-.667-.777-1.052-.97M88.376 71.653a.085.085 0 0 0-.061.027l-.022.022h-.03a.14.14 0 0 0-.076.037v.03l-.018.008-.04.038c.538.924 1.219 1.769 2.08 2.578a96.327 96.327 0 0 0 3.445 2.862c1.99 1.61 4.1 2.75 6.45 3.48a46.445 46.445 0 0 1-11.728-9.082M95.457 71.33c1.79 1.694 3.722 2.917 5.902 3.739v-.002c-3.398-2.527-6.697-5.176-10.597-8.371h-.12c-.06 0-.113.025-.123.038v.031l-.018.006a.08.08 0 0 0-.026.06l.267.238c1.624 1.437 3.156 2.795 4.715 4.262M83.307 66.16a24.972 24.972 0 0 0 2.923 2.026 18.514 18.514 0 0 0-2.923-2.025M89.072 67.187l.02.015c3.417 3.508 7.36 6.882 11.721 10.03.032-.01.062-.018.09-.024.076-.02.137-.036.212-.08v-.105c0-.064-.075-.187-.153-.226-3.986-3.046-7.828-6.285-11.757-9.907h-.277a.378.378 0 0 0-.017.032c-.008.015-.015.03-.026.048.052.091.126.186.187.217M99.519 77.486c.132.022.277.033.416.044.07.006.14.011.205.018a.096.096 0 0 0-.027-.015h-.026l-.015-.017c-3.101-2.598-6.555-5.389-10.864-8.78h-.17c-.045 0-.066.002-.093.028l-.074.074c0 .027.007.045.026.064a149.195 149.195 0 0 0 10.622 8.584M100.986 79.577a.684.684 0 0 1-.091-.073 114.186 114.186 0 0 1-10.911-8.385h-.119a.38.38 0 0 0-.122.014.12.12 0 0 1-.02.056c3.22 3.45 6.882 6.272 11.193 8.626.054-.005.082-.033.123-.074.02-.02.05-.05.066-.073-.042-.037-.082-.065-.119-.091"/>
  </g>
</svg>
